<svg width="54" height="54" viewBox="0 0 54 54" fill="none" xmlns="http://www.w3.org/2000/svg">
<circle cx="26.9991" cy="26.9991" r="26.9991" fill="#4ADE80"/>
<path d="M40.7513 22.5754L25.4381 37.8887C25.0803 38.2463 24.5951 38.4471 24.0892 38.4471C23.5833 38.4471 23.0982 38.2463 22.7404 37.8887L14.1988 29.3018C13.8416 28.944 13.6409 28.4591 13.6409 27.9535C13.6409 27.448 13.8416 26.9631 14.1988 26.6053L16.584 24.22C16.9417 23.8639 17.4258 23.664 17.9305 23.664C18.4352 23.664 18.9194 23.8639 19.277 24.22L24.1369 28.9333L35.6767 17.5354C36.0344 17.1789 36.5188 16.9787 37.0238 16.9787C37.5288 16.9787 38.0132 17.1789 38.3709 17.5354L40.7502 19.8658C40.9291 20.0431 41.0711 20.2541 41.1681 20.4866C41.2651 20.719 41.3151 20.9684 41.3152 21.2203C41.3153 21.4722 41.2655 21.7217 41.1688 21.9543C41.072 22.1868 40.9301 22.3979 40.7513 22.5754Z" fill="black"/>
</svg>
